<svg xmlns="http://www.w3.org/2000/svg" version="1.1" xmlns:xlink="http://www.w3.org/1999/xlink" xmlns:svgjs="http://svgjs.dev/svgjs" width="1000" height="784" viewBox="0 0 1000 784"><g transform="matrix(1,0,0,1,-0.4050972501677279,0.3174089068825765)"><svg viewBox="0 0 315 247" data-background-color="#ffffff" preserveAspectRatio="xMidYMid meet" height="784" width="1000" xmlns="http://www.w3.org/2000/svg" xmlns:xlink="http://www.w3.org/1999/xlink"><g id="tight-bounds" transform="matrix(1,0,0,1,0.12760563380282974,-0.09999999999999432)"><svg viewBox="0 0 314.74478873239434 247.2" height="247.2" width="314.74478873239434"><g><svg viewBox="0 0 314.74478873239434 247.2" height="247.2" width="314.74478873239434"><g><svg viewBox="0 0 314.74478873239434 247.2" height="247.2" width="314.74478873239434"><g id="textblocktransform"><svg viewBox="0 0 314.74478873239434 247.2" height="247.2" width="314.74478873239434" id="textblock"><g><svg viewBox="0 0 314.74478873239434 247.2" height="247.2" width="314.74478873239434"><g transform="matrix(1,0,0,1,0,0)"><svg width="314.74478873239434" viewBox="4.949999809265137 -35 45.20000076293945 35.5" height="247.2" data-palette-color="#22c55e"><path d="M6.45-35L6.45 0 4.95 0 4.95-35 6.45-35ZM20.05-33.5L20.05-35 39.2-35 39.2-15.05Q39.2-7.05 36.45-3.28 33.7 0.5 27.55 0.5 21.4 0.5 18.65-3.28 15.9-7.05 15.9-15.05L15.9-15.05 15.9-35 17.4-35 17.4-15.05Q17.4-10.9 18.1-8.08 18.8-5.25 20.2-3.75 21.6-2.25 23.35-1.63 25.1-1 27.55-1 30-1 31.75-1.63 33.5-2.25 34.9-3.75 36.3-5.25 37-8.08 37.7-10.9 37.7-15.05L37.7-15.05 37.7-33.5 20.05-33.5ZM50.15-35L50.15 0 48.65 0 48.65-35 50.15-35Z" opacity="1" transform="matrix(1,0,0,1,0,0)" fill="#22c55e" class="wordmark-text-0" data-fill-palette-color="primary" id="text-0"></path></svg></g></svg></g></svg></g></svg></g></svg></g><defs></defs></svg><rect width="314.74478873239434" height="247.2" fill="none" stroke="none" visibility="hidden"></rect></g></svg></g></svg>